<?xml version="1.0" encoding="UTF-8" standalone="no"?>
<!-- Created with Inkscape (http://www.inkscape.org/) -->

<svg
   xmlns:dc="http://purl.org/dc/elements/1.1/"
   xmlns:cc="http://creativecommons.org/ns#"
   xmlns:rdf="http://www.w3.org/1999/02/22-rdf-syntax-ns#"
   xmlns:svg="http://www.w3.org/2000/svg"
   xmlns="http://www.w3.org/2000/svg"
   xmlns:xlink="http://www.w3.org/1999/xlink"
   xmlns:sodipodi="http://sodipodi.sourceforge.net/DTD/sodipodi-0.dtd"
   xmlns:inkscape="http://www.inkscape.org/namespaces/inkscape"
   id="svg2"
   version="1.1"
   inkscape:version="0.91 r"
   width="210mm"
   height="297mm"
   viewBox="0 0 744.09447 1052.3622"
   sodipodi:docname="xfer-gear.svg">
  <sodipodi:namedview
     pagecolor="#ffffff"
     bordercolor="#666666"
     borderopacity="1"
     objecttolerance="10"
     gridtolerance="10"
     guidetolerance="10"
     inkscape:pageopacity="0"
     inkscape:pageshadow="2"
     inkscape:window-width="1600"
     inkscape:window-height="848"
     id="namedview4"
     showgrid="true"
     showguides="true"
     inkscape:guide-bbox="true"
     units="mm"
     inkscape:document-units="mm"
     inkscape:snap-global="false"
     inkscape:zoom="14.746929"
     inkscape:cx="36.665252"
     inkscape:cy="1041.2912"
     inkscape:window-x="0"
     inkscape:window-y="0"
     inkscape:window-maximized="1"
     inkscape:current-layer="layer3">
    <inkscape:grid
       type="xygrid"
       id="grid4140" />
  </sodipodi:namedview>
  <metadata
     id="metadata8">
    <rdf:RDF>
      <cc:Work
         rdf:about="">
        <dc:format>image/svg+xml</dc:format>
        <dc:type
           rdf:resource="http://purl.org/dc/dcmitype/StillImage" />
        <dc:title></dc:title>
      </cc:Work>
    </rdf:RDF>
  </metadata>
  <defs
     id="defs6" />
  <g
     style="display:none"
     inkscape:groupmode="layer"
     id="layer1"
     inkscape:label="bild"
     sodipodi:insensitive="true">
    <image
       sodipodi:absref="/home/jw/src/github/fablabnbg/MiniTurntable/photos/20160110_225604.jpg"
       xlink:href="20160110_225604.jpg"
       transform="matrix(0.99985581,0.01698118,-0.01698118,0.99985581,0,0)"
       width="135.85194"
       height="101.04475"
       preserveAspectRatio="none"
       id="image4398"
       x="171.3094"
       y="34.092518" />
    <image
       sodipodi:absref="/home/jw/src/github/fablabnbg/MiniTurntable/photos/20160110_225211.jpg"
       xlink:href="20160110_225211.jpg"
       width="117.80128"
       height="158.77562"
       preserveAspectRatio="none"
       id="image10"
       x="29.893421"
       y="38.205341"
       transform="matrix(0.99998257,-0.00590451,0.00590451,0.99998257,0,0)" />
  </g>
  <g
     style="display:none"
     sodipodi:insensitive="true"
     inkscape:groupmode="layer"
     id="layer2"
     inkscape:label="konstr">
    <g
       id="g4258"
       inkscape:label="Gear16"
       transform="matrix(0.99558945,-0.09381699,0.09381699,0.99558945,220.94685,111.52373)"
       info="N:16; Pitch:4.45265107144; Pressure Angle: 20.0"
       style="stroke:#ff0000;stroke-width:0.10629921;stroke-miterlimit:4;stroke-dasharray:none;stroke-opacity:1">
      <path
         id="path4260"
         style="fill:none;stroke:#ff0000;stroke-width:0.10629921;stroke-miterlimit:4;stroke-dasharray:none;stroke-opacity:1"
         d="m 10.5867,-1.2023 0.4264,0.0325 0.4326,0.1035 0.4348,0.1545 0.4346,0.1993 0.4321,0.2409 L 12.7559,0 12.7472,0.4716 12.3151,0.7125 11.8805,0.9118 11.4457,1.0663 11.0131,1.1698 10.5867,1.2023 9.8579,1.1195 9.7306,1.9355 9.5359,2.7382 l 0.7051,0.2024 0.3814,0.1932 0.3601,0.2611 0.3426,0.3092 0.3252,0.3504 0.3071,0.3879 L 11.7849,4.8815 11.5964,5.3139 11.105,5.371 10.6272,5.3889 10.1664,5.3652 9.7271,5.2953 9.3208,5.1621 8.6791,4.8067 8.2492,5.512 7.7622,6.179 8.3361,6.6358 8.6146,6.9602 8.8473,7.3393 9.0455,7.756 9.2119,8.2043 9.3471,8.6801 9.0198,9.0198 8.6801,9.3471 8.2043,9.2119 7.756,9.0455 7.3393,8.8473 6.9602,8.6146 6.6358,8.3361 6.179,7.7622 5.512,8.2492 4.8067,8.6791 5.1621,9.3208 5.2953,9.7271 5.3652,10.1664 5.3889,10.6272 5.371,11.105 5.3139,11.5964 4.8815,11.7849 4.4424,11.9574 4.0545,11.6503 3.7041,11.3251 3.3949,10.9825 3.1338,10.6224 2.9406,10.241 2.7382,9.5359 1.9355,9.7306 1.1195,9.8579 1.2023,10.5867 1.1698,11.0131 1.0663,11.4457 0.9118,11.8805 0.7125,12.3151 0.4716,12.7472 0,12.7559 -0.4716,12.7472 -0.7125,12.3151 -0.9118,11.8805 -1.0663,11.4457 -1.1698,11.0131 -1.2023,10.5867 -1.1195,9.8579 -1.9355,9.7306 -2.7382,9.5359 l -0.2024,0.7051 -0.1932,0.3814 -0.2611,0.3601 -0.3092,0.3426 -0.3504,0.3252 -0.3879,0.3071 L -4.8815,11.7849 -5.3139,11.5964 -5.371,11.105 -5.3889,10.6272 -5.3652,10.1664 -5.2953,9.7271 -5.1621,9.3208 -4.8067,8.6791 -5.512,8.2492 -6.179,7.7622 -6.6358,8.3361 -6.9602,8.6146 -7.3393,8.8473 -7.756,9.0455 -8.2043,9.2119 -8.6801,9.3471 -9.0198,9.0198 -9.3471,8.6801 -9.2119,8.2043 -9.0455,7.756 -8.8473,7.3393 -8.6146,6.9602 -8.3361,6.6358 -7.7622,6.179 -8.2492,5.512 -8.6791,4.8067 -9.3208,5.1621 -9.7271,5.2953 -10.1664,5.3652 -10.6272,5.3889 -11.105,5.371 -11.5964,5.3139 -11.7849,4.8815 -11.9574,4.4424 -11.6503,4.0545 -11.3251,3.7041 -10.9825,3.3949 -10.6224,3.1338 -10.241,2.9406 -9.5359,2.7382 -9.7306,1.9355 -9.8579,1.1195 -10.5867,1.2023 -11.0131,1.1698 -11.4457,1.0663 -11.8805,0.9118 -12.3151,0.7125 -12.7472,0.4716 -12.7559,0 l 0.0087,-0.4716 0.4321,-0.2409 0.4346,-0.1993 0.4348,-0.1545 0.4326,-0.1035 0.4264,-0.0325 0.7288,0.0828 0.1273,-0.816 0.1947,-0.8027 -0.7051,-0.2024 -0.3814,-0.1932 -0.3601,-0.2611 -0.3426,-0.3092 -0.3252,-0.3504 -0.3071,-0.3879 0.1725,-0.4391 0.1885,-0.4324 0.4914,-0.0571 0.4778,-0.0179 0.4608,0.0237 0.4393,0.0699 0.4063,0.1332 0.6417,0.3554 0.4299,-0.7053 0.487,-0.667 -0.5739,-0.4568 -0.2785,-0.3244 -0.2327,-0.3791 -0.1982,-0.4167 -0.1664,-0.4483 -0.1352,-0.4758 0.3273,-0.3397 0.3397,-0.3273 0.4758,0.1352 0.4483,0.1664 0.4167,0.1982 0.3791,0.2327 0.3244,0.2785 0.4568,0.5739 0.667,-0.487 0.7053,-0.4299 -0.3554,-0.6417 -0.1332,-0.4063 -0.0699,-0.4393 -0.0237,-0.4608 0.0179,-0.4778 0.0571,-0.4914 0.4324,-0.1885 0.4391,-0.1725 0.3879,0.3071 0.3504,0.3252 0.3092,0.3426 0.2611,0.3601 0.1932,0.3814 0.2024,0.7051 0.8027,-0.1947 0.816,-0.1273 -0.0828,-0.7288 0.0325,-0.4264 0.1035,-0.4326 0.1545,-0.4348 0.1993,-0.4346 0.2409,-0.4321 0.4716,-0.0087 0.4716,0.0087 0.2409,0.4321 0.1993,0.4346 0.1545,0.4348 0.1035,0.4326 0.0325,0.4264 -0.0828,0.7288 0.816,0.1273 0.8027,0.1947 0.2024,-0.7051 0.1932,-0.3814 0.2611,-0.3601 0.3092,-0.3426 0.3504,-0.3252 0.3879,-0.3071 0.4391,0.1725 0.4324,0.1885 0.0571,0.4914 0.0179,0.4778 -0.0237,0.4608 -0.0699,0.4393 -0.1332,0.4063 -0.3554,0.6417 0.7053,0.4299 0.667,0.487 0.4568,-0.5739 0.3244,-0.2785 0.3791,-0.2327 0.4167,-0.1982 0.4483,-0.1664 0.4758,-0.1352 0.3397,0.3273 0.3273,0.3397 -0.1352,0.4758 -0.1664,0.4483 -0.1982,0.4167 -0.2327,0.3791 -0.2785,0.3244 -0.5739,0.4568 0.487,0.667 0.4299,0.7053 0.6417,-0.3554 0.4063,-0.1332 0.4393,-0.0699 0.4608,-0.0237 0.4778,0.0179 0.4914,0.0571 0.1885,0.4324 0.1725,0.4391 -0.3071,0.3879 -0.3252,0.3504 -0.3426,0.3092 -0.3601,0.2611 -0.3814,0.1932 -0.7051,0.2024 0.1947,0.8027 0.1273,0.816 z M 0,1.771654 a 1.771654,1.771654 0 0 0 0,-3.543308 1.771654,1.771654 0 0 0 0,3.543308"
         inkscape:connector-curvature="0" />
      <path
         id="path4262"
         inkscape:label="Center cross"
         style="fill:none;stroke:#ff0000;stroke-width:0.10629921;stroke-miterlimit:4;stroke-dasharray:none;stroke-opacity:1"
         d="M -1.484217,0 1.484217,0 M 0,-1.484217 0,1.484217"
         inkscape:connector-curvature="0" />
    </g>
    <g
       style="stroke:#ff0000;stroke-width:0.10629921;stroke-miterlimit:4;stroke-dasharray:none;stroke-opacity:1"
       info="N:16; Pitch:4.45265107144; Pressure Angle: 20.0"
       transform="matrix(0.99582816,0.09124837,-0.09124837,0.99582816,100.66905,61.338074)"
       inkscape:label="Gear16"
       id="g4402">
      <path
         inkscape:connector-curvature="0"
         d="m 10.5867,-1.2023 0.4264,0.0325 0.4326,0.1035 0.4348,0.1545 0.4346,0.1993 0.4321,0.2409 L 12.7559,0 12.7472,0.4716 12.3151,0.7125 11.8805,0.9118 11.4457,1.0663 11.0131,1.1698 10.5867,1.2023 9.8579,1.1195 9.7306,1.9355 9.5359,2.7382 l 0.7051,0.2024 0.3814,0.1932 0.3601,0.2611 0.3426,0.3092 0.3252,0.3504 0.3071,0.3879 L 11.7849,4.8815 11.5964,5.3139 11.105,5.371 10.6272,5.3889 10.1664,5.3652 9.7271,5.2953 9.3208,5.1621 8.6791,4.8067 8.2492,5.512 7.7622,6.179 8.3361,6.6358 8.6146,6.9602 8.8473,7.3393 9.0455,7.756 9.2119,8.2043 9.3471,8.6801 9.0198,9.0198 8.6801,9.3471 8.2043,9.2119 7.756,9.0455 7.3393,8.8473 6.9602,8.6146 6.6358,8.3361 6.179,7.7622 5.512,8.2492 4.8067,8.6791 5.1621,9.3208 5.2953,9.7271 5.3652,10.1664 5.3889,10.6272 5.371,11.105 5.3139,11.5964 4.8815,11.7849 4.4424,11.9574 4.0545,11.6503 3.7041,11.3251 3.3949,10.9825 3.1338,10.6224 2.9406,10.241 2.7382,9.5359 1.9355,9.7306 1.1195,9.8579 1.2023,10.5867 1.1698,11.0131 1.0663,11.4457 0.9118,11.8805 0.7125,12.3151 0.4716,12.7472 0,12.7559 -0.4716,12.7472 -0.7125,12.3151 -0.9118,11.8805 -1.0663,11.4457 -1.1698,11.0131 -1.2023,10.5867 -1.1195,9.8579 -1.9355,9.7306 -2.7382,9.5359 l -0.2024,0.7051 -0.1932,0.3814 -0.2611,0.3601 -0.3092,0.3426 -0.3504,0.3252 -0.3879,0.3071 L -4.8815,11.7849 -5.3139,11.5964 -5.371,11.105 -5.3889,10.6272 -5.3652,10.1664 -5.2953,9.7271 -5.1621,9.3208 -4.8067,8.6791 -5.512,8.2492 -6.179,7.7622 -6.6358,8.3361 -6.9602,8.6146 -7.3393,8.8473 -7.756,9.0455 -8.2043,9.2119 -8.6801,9.3471 -9.0198,9.0198 -9.3471,8.6801 -9.2119,8.2043 -9.0455,7.756 -8.8473,7.3393 -8.6146,6.9602 -8.3361,6.6358 -7.7622,6.179 -8.2492,5.512 -8.6791,4.8067 -9.3208,5.1621 -9.7271,5.2953 -10.1664,5.3652 -10.6272,5.3889 -11.105,5.371 -11.5964,5.3139 -11.7849,4.8815 -11.9574,4.4424 -11.6503,4.0545 -11.3251,3.7041 -10.9825,3.3949 -10.6224,3.1338 -10.241,2.9406 -9.5359,2.7382 -9.7306,1.9355 -9.8579,1.1195 -10.5867,1.2023 -11.0131,1.1698 -11.4457,1.0663 -11.8805,0.9118 -12.3151,0.7125 -12.7472,0.4716 -12.7559,0 l 0.0087,-0.4716 0.4321,-0.2409 0.4346,-0.1993 0.4348,-0.1545 0.4326,-0.1035 0.4264,-0.0325 0.7288,0.0828 0.1273,-0.816 0.1947,-0.8027 -0.7051,-0.2024 -0.3814,-0.1932 -0.3601,-0.2611 -0.3426,-0.3092 -0.3252,-0.3504 -0.3071,-0.3879 0.1725,-0.4391 0.1885,-0.4324 0.4914,-0.0571 0.4778,-0.0179 0.4608,0.0237 0.4393,0.0699 0.4063,0.1332 0.6417,0.3554 0.4299,-0.7053 0.487,-0.667 -0.5739,-0.4568 -0.2785,-0.3244 -0.2327,-0.3791 -0.1982,-0.4167 -0.1664,-0.4483 -0.1352,-0.4758 0.3273,-0.3397 0.3397,-0.3273 0.4758,0.1352 0.4483,0.1664 0.4167,0.1982 0.3791,0.2327 0.3244,0.2785 0.4568,0.5739 0.667,-0.487 0.7053,-0.4299 -0.3554,-0.6417 -0.1332,-0.4063 -0.0699,-0.4393 -0.0237,-0.4608 0.0179,-0.4778 0.0571,-0.4914 0.4324,-0.1885 0.4391,-0.1725 0.3879,0.3071 0.3504,0.3252 0.3092,0.3426 0.2611,0.3601 0.1932,0.3814 0.2024,0.7051 0.8027,-0.1947 0.816,-0.1273 -0.0828,-0.7288 0.0325,-0.4264 0.1035,-0.4326 0.1545,-0.4348 0.1993,-0.4346 0.2409,-0.4321 0.4716,-0.0087 0.4716,0.0087 0.2409,0.4321 0.1993,0.4346 0.1545,0.4348 0.1035,0.4326 0.0325,0.4264 -0.0828,0.7288 0.816,0.1273 0.8027,0.1947 0.2024,-0.7051 0.1932,-0.3814 0.2611,-0.3601 0.3092,-0.3426 0.3504,-0.3252 0.3879,-0.3071 0.4391,0.1725 0.4324,0.1885 0.0571,0.4914 0.0179,0.4778 -0.0237,0.4608 -0.0699,0.4393 -0.1332,0.4063 -0.3554,0.6417 0.7053,0.4299 0.667,0.487 0.4568,-0.5739 0.3244,-0.2785 0.3791,-0.2327 0.4167,-0.1982 0.4483,-0.1664 0.4758,-0.1352 0.3397,0.3273 0.3273,0.3397 -0.1352,0.4758 -0.1664,0.4483 -0.1982,0.4167 -0.2327,0.3791 -0.2785,0.3244 -0.5739,0.4568 0.487,0.667 0.4299,0.7053 0.6417,-0.3554 0.4063,-0.1332 0.4393,-0.0699 0.4608,-0.0237 0.4778,0.0179 0.4914,0.0571 0.1885,0.4324 0.1725,0.4391 -0.3071,0.3879 -0.3252,0.3504 -0.3426,0.3092 -0.3601,0.2611 -0.3814,0.1932 -0.7051,0.2024 0.1947,0.8027 0.1273,0.816 z M 0,1.771654 a 1.771654,1.771654 0 0 0 0,-3.543308 1.771654,1.771654 0 0 0 0,3.543308"
         style="fill:none;stroke:#ff0000;stroke-width:0.10629921;stroke-miterlimit:4;stroke-dasharray:none;stroke-opacity:1"
         id="path4404" />
      <path
         inkscape:connector-curvature="0"
         d="M -1.484217,0 1.484217,0 M 0,-1.484217 0,1.484217"
         style="fill:none;stroke:#ff0000;stroke-width:0.10629921;stroke-miterlimit:4;stroke-dasharray:none;stroke-opacity:1"
         inkscape:label="Center cross"
         id="path4406" />
    </g>
    <g
       transform="translate(-0.18204274,-0.10922564)"
       id="g4412">
      <circle
         style="opacity:1;fill:none;fill-opacity:1;stroke:#ffff00;stroke-width:0.10629921;stroke-linecap:round;stroke-linejoin:round;stroke-miterlimit:4;stroke-dasharray:none;stroke-dashoffset:0;stroke-opacity:1"
         id="path4408"
         cx="203.21945"
         cy="108.93024"
         r="3.5433071" />
      <circle
         r="3.5433071"
         cy="111.57752"
         cx="221.03587"
         id="circle4410"
         style="opacity:1;fill:none;fill-opacity:1;stroke:#ffff00;stroke-width:0.10629921;stroke-linecap:round;stroke-linejoin:round;stroke-miterlimit:4;stroke-dasharray:none;stroke-dashoffset:0;stroke-opacity:1" />
    </g>
    <g
       id="g4434"
       inkscape:label="Gear10"
       transform="matrix(0.97652707,0.21539469,-0.21539469,0.97652707,202.63757,108.81442)"
       info="N:10; Pitch:4.45265107144; Pressure Angle: 20.0"
       style="stroke:#00ff00;stroke-width:0.10629921;stroke-miterlimit:4;stroke-dasharray:none;stroke-opacity:1">
      <path
         id="path4436"
         style="fill:none;stroke:#00ff00;stroke-width:0.10629921;stroke-miterlimit:4;stroke-dasharray:none;stroke-opacity:1"
         d="m 6.561,-1.1396 0.3774,0.02 0.3876,0.096 0.3911,0.1526 0.3905,0.2034 0.3861,0.2513 L 8.5039,0 8.4937,0.4163 8.1076,0.6676 7.7171,0.871 7.326,1.0236 6.9384,1.1196 6.561,1.1396 5.5857,0.9702 5.3918,1.7519 5.0892,2.4982 5.9778,2.9345 6.2714,3.1725 6.5285,3.478 6.7552,3.8313 6.9516,4.2254 7.1163,4.6557 6.8798,4.9985 6.6269,5.3293 6.1667,5.3056 5.7313,5.2406 5.3252,5.1342 4.9552,4.9841 4.6381,4.7784 3.9486,4.0681 3.3323,4.5866 2.6488,5.0125 3.1113,5.8877 3.2089,6.2529 3.2373,6.6511 3.2131,7.0702 3.1403,7.5044 3.0207,7.9494 2.6279,8.0877 2.2288,8.2067 1.8704,7.9171 1.5563,7.6085 1.2904,7.2837 1.0793,6.9448 0.9436,6.592 0.8033,5.6121 0,5.6693 -0.8033,5.6121 -0.9436,6.592 -1.0793,6.9448 -1.2904,7.2837 -1.5563,7.6085 -1.8704,7.9171 -2.2288,8.2067 -2.6279,8.0877 -3.0207,7.9494 -3.1403,7.5044 -3.2131,7.0702 -3.2373,6.6511 -3.2089,6.2529 -3.1113,5.8877 -2.6488,5.0125 -3.3323,4.5866 -3.9486,4.0681 -4.6381,4.7784 -4.9552,4.9841 -5.3252,5.1342 -5.7313,5.2406 -6.1667,5.3056 -6.6269,5.3293 -6.8798,4.9985 -7.1163,4.6557 -6.9516,4.2254 -6.7552,3.8313 -6.5285,3.478 -6.2714,3.1725 -5.9778,2.9345 -5.0892,2.4982 -5.3918,1.7519 -5.5857,0.9702 -6.561,1.1396 -6.9384,1.1196 -7.326,1.0236 -7.7171,0.871 -8.1076,0.6676 -8.4937,0.4163 -8.5039,0 l 0.0102,-0.4163 0.3861,-0.2513 0.3905,-0.2034 0.3911,-0.1526 0.3876,-0.096 0.3774,-0.02 0.9753,0.1694 0.1939,-0.7817 0.3026,-0.7463 -0.8886,-0.4363 -0.2936,-0.238 -0.2571,-0.3055 -0.2267,-0.3533 -0.1964,-0.3941 -0.1647,-0.4303 0.2365,-0.3428 0.2529,-0.3308 0.4602,0.0237 0.4354,0.065 0.4061,0.1064 0.37,0.1501 0.3171,0.2057 0.6895,0.7103 0.6163,-0.5185 0.6835,-0.4259 -0.4625,-0.8752 -0.0976,-0.3652 -0.0284,-0.3982 0.0242,-0.4191 0.0728,-0.4342 0.1196,-0.445 0.3928,-0.1383 0.3991,-0.119 0.3584,0.2896 0.3141,0.3086 0.2659,0.3248 0.2111,0.3389 0.1357,0.3528 0.1403,0.9799 L 0,-5.6693 l 0.8033,0.0572 0.1403,-0.9799 0.1357,-0.3528 0.2111,-0.3389 0.2659,-0.3248 0.3141,-0.3086 0.3584,-0.2896 0.3991,0.119 0.3928,0.1383 0.1196,0.445 0.0728,0.4342 0.0242,0.4191 -0.0284,0.3982 -0.0976,0.3652 -0.4625,0.8752 0.6835,0.4259 0.6163,0.5185 0.6895,-0.7103 0.3171,-0.2057 0.37,-0.1501 0.4061,-0.1064 0.4354,-0.065 0.4602,-0.0237 0.2529,0.3308 0.2365,0.3428 -0.1647,0.4303 -0.1964,0.3941 -0.2267,0.3533 -0.2571,0.3055 -0.2936,0.238 -0.8886,0.4363 0.3026,0.7463 0.1939,0.7817 z M 0,1.771654 a 1.771654,1.771654 0 0 0 0,-3.543308 1.771654,1.771654 0 0 0 0,3.543308"
         inkscape:connector-curvature="0" />
      <path
         id="path4438"
         inkscape:label="Center cross"
         style="fill:none;stroke:#00ff00;stroke-width:0.10629921;stroke-miterlimit:4;stroke-dasharray:none;stroke-opacity:1"
         d="M -1.484217,0 1.484217,0 M 0,-1.484217 0,1.484217"
         inkscape:connector-curvature="0" />
    </g>
    <g
       style="stroke:#00ff00;stroke-width:0.10629921;stroke-miterlimit:4;stroke-dasharray:none;stroke-opacity:1"
       info="N:10; Pitch:4.45265107144; Pressure Angle: 20.0"
       transform="matrix(0.99995355,-0.00963805,0.00963805,0.99995355,118.90818,64.550629)"
       inkscape:label="Gear10"
       id="g4459">
      <path
         inkscape:connector-curvature="0"
         d="m 6.561,-1.1396 0.3774,0.02 0.3876,0.096 0.3911,0.1526 0.3905,0.2034 0.3861,0.2513 L 8.5039,0 8.4937,0.4163 8.1076,0.6676 7.7171,0.871 7.326,1.0236 6.9384,1.1196 6.561,1.1396 5.5857,0.9702 5.3918,1.7519 5.0892,2.4982 5.9778,2.9345 6.2714,3.1725 6.5285,3.478 6.7552,3.8313 6.9516,4.2254 7.1163,4.6557 6.8798,4.9985 6.6269,5.3293 6.1667,5.3056 5.7313,5.2406 5.3252,5.1342 4.9552,4.9841 4.6381,4.7784 3.9486,4.0681 3.3323,4.5866 2.6488,5.0125 3.1113,5.8877 3.2089,6.2529 3.2373,6.6511 3.2131,7.0702 3.1403,7.5044 3.0207,7.9494 2.6279,8.0877 2.2288,8.2067 1.8704,7.9171 1.5563,7.6085 1.2904,7.2837 1.0793,6.9448 0.9436,6.592 0.8033,5.6121 0,5.6693 -0.8033,5.6121 -0.9436,6.592 -1.0793,6.9448 -1.2904,7.2837 -1.5563,7.6085 -1.8704,7.9171 -2.2288,8.2067 -2.6279,8.0877 -3.0207,7.9494 -3.1403,7.5044 -3.2131,7.0702 -3.2373,6.6511 -3.2089,6.2529 -3.1113,5.8877 -2.6488,5.0125 -3.3323,4.5866 -3.9486,4.0681 -4.6381,4.7784 -4.9552,4.9841 -5.3252,5.1342 -5.7313,5.2406 -6.1667,5.3056 -6.6269,5.3293 -6.8798,4.9985 -7.1163,4.6557 -6.9516,4.2254 -6.7552,3.8313 -6.5285,3.478 -6.2714,3.1725 -5.9778,2.9345 -5.0892,2.4982 -5.3918,1.7519 -5.5857,0.9702 -6.561,1.1396 -6.9384,1.1196 -7.326,1.0236 -7.7171,0.871 -8.1076,0.6676 -8.4937,0.4163 -8.5039,0 l 0.0102,-0.4163 0.3861,-0.2513 0.3905,-0.2034 0.3911,-0.1526 0.3876,-0.096 0.3774,-0.02 0.9753,0.1694 0.1939,-0.7817 0.3026,-0.7463 -0.8886,-0.4363 -0.2936,-0.238 -0.2571,-0.3055 -0.2267,-0.3533 -0.1964,-0.3941 -0.1647,-0.4303 0.2365,-0.3428 0.2529,-0.3308 0.4602,0.0237 0.4354,0.065 0.4061,0.1064 0.37,0.1501 0.3171,0.2057 0.6895,0.7103 0.6163,-0.5185 0.6835,-0.4259 -0.4625,-0.8752 -0.0976,-0.3652 -0.0284,-0.3982 0.0242,-0.4191 0.0728,-0.4342 0.1196,-0.445 0.3928,-0.1383 0.3991,-0.119 0.3584,0.2896 0.3141,0.3086 0.2659,0.3248 0.2111,0.3389 0.1357,0.3528 0.1403,0.9799 L 0,-5.6693 l 0.8033,0.0572 0.1403,-0.9799 0.1357,-0.3528 0.2111,-0.3389 0.2659,-0.3248 0.3141,-0.3086 0.3584,-0.2896 0.3991,0.119 0.3928,0.1383 0.1196,0.445 0.0728,0.4342 0.0242,0.4191 -0.0284,0.3982 -0.0976,0.3652 -0.4625,0.8752 0.6835,0.4259 0.6163,0.5185 0.6895,-0.7103 0.3171,-0.2057 0.37,-0.1501 0.4061,-0.1064 0.4354,-0.065 0.4602,-0.0237 0.2529,0.3308 0.2365,0.3428 -0.1647,0.4303 -0.1964,0.3941 -0.2267,0.3533 -0.2571,0.3055 -0.2936,0.238 -0.8886,0.4363 0.3026,0.7463 0.1939,0.7817 z M 0,1.771654 a 1.771654,1.771654 0 0 0 0,-3.543308 1.771654,1.771654 0 0 0 0,3.543308"
         style="fill:none;stroke:#00ff00;stroke-width:0.10629921;stroke-miterlimit:4;stroke-dasharray:none;stroke-opacity:1"
         id="path4461" />
      <path
         inkscape:connector-curvature="0"
         d="M -1.484217,0 1.484217,0 M 0,-1.484217 0,1.484217"
         style="fill:none;stroke:#00ff00;stroke-width:0.10629921;stroke-miterlimit:4;stroke-dasharray:none;stroke-opacity:1"
         inkscape:label="Center cross"
         id="path4463" />
    </g>
    <g
       inkscape:transform-center-y="-0.14364322"
       style="stroke:#00ff00;stroke-width:0.14173228;stroke-miterlimit:4;stroke-dasharray:none;stroke-opacity:1"
       info="N:9; Pitch:4.45265107144; Pressure Angle: 20.0"
       transform="matrix(0.98870678,-0.14986294,0.14986294,0.98870678,238.50085,109.50618)"
       inkscape:label="Gear9"
       inkscape:transform-center-x="-0.023029257"
       id="g4489">
      <path
         inkscape:connector-curvature="0"
         d="m 5.8861,-1.1286 0.3696,0.0168 0.3809,0.0946 0.3849,0.1533 0.3842,0.2062 0.3792,0.2563 L 7.7953,0 7.7849,0.4014 7.4057,0.6577 7.0215,0.8639 6.6366,1.0172 6.2557,1.1118 5.8861,1.1286 4.8719,0.9341 4.6615,1.6966 4.3325,2.416 5.2344,2.919 5.5068,3.1693 5.7378,3.4867 5.9341,3.8515 6.0959,4.2565 6.2216,4.6966 5.9715,5.0107 5.7056,5.3115 5.2503,5.2642 4.8235,5.1752 4.4301,5.0451 4.0774,4.8728 3.7836,4.6481 3.1316,3.8472 2.4803,4.296 1.7659,4.6357 2.1335,5.6007 2.1812,5.9676 2.1542,6.3591 2.0701,6.7648 1.9337,7.179 1.7471,7.597 1.3536,7.6768 0.9566,7.7364 0.6382,7.4074 0.3685,7.0649 0.1507,6.7124 -0.0087,6.3537 -0.0893,5.9926 -0.0739,4.9601 -0.8614,4.8853 -1.627,4.6862 -1.9657,5.6618 -2.165,5.9735 -2.4374,6.2561 -2.7626,6.5128 -3.1333,6.7424 -3.5449,6.9426 -3.8976,6.7509 -4.2401,6.5413 -4.2725,6.0847 -4.259,5.6489 -4.1992,5.2389 -4.0907,4.8616 -3.9204,4.5332 -3.2449,3.7521 -3.8001,3.1886 -4.2586,2.5441 -5.1451,3.0737 -5.4981,3.1844 -5.8885,3.2257 -6.3026,3.2134 -6.7342,3.151 -7.1782,3.0398 -7.3252,2.6661 -7.4527,2.2854 -7.1841,1.9148 -6.8936,1.5897 -6.5843,1.314 -6.2587,1.0948 -5.9171,0.9526 -4.8976,0.7885 -4.9606,0 l 0.063,-0.7885 -1.0195,-0.1641 -0.3416,-0.1422 -0.3256,-0.2192 -0.3093,-0.2757 -0.2905,-0.3251 -0.2686,-0.3706 0.1275,-0.3807 0.147,-0.3737 0.444,-0.1112 0.4316,-0.0624 0.4141,-0.0123 0.3904,0.0413 0.353,0.1107 0.8865,0.5296 0.4585,-0.6445 0.5552,-0.5635 -0.6755,-0.7811 -0.1703,-0.3284 -0.1085,-0.3773 -0.0598,-0.41 -0.0135,-0.4358 0.0324,-0.4566 0.3425,-0.2096 0.3527,-0.1917 0.4116,0.2002 0.3707,0.2296 0.3252,0.2567 0.2724,0.2826 0.1993,0.3117 0.3387,0.9756 0.7656,-0.1991 0.7875,-0.0748 -0.0154,-1.0325 0.0806,-0.3611 0.1594,-0.3587 0.2178,-0.3525 0.2697,-0.3425 0.3184,-0.329 0.397,0.0596 0.3935,0.0798 0.1866,0.418 0.1364,0.4142 0.0841,0.4057 0.027,0.3915 -0.0477,0.3669 -0.3676,0.965 0.7144,0.3397 0.6513,0.4488 0.652,-0.8009 0.2938,-0.2247 0.3527,-0.1723 0.3934,-0.1301 0.4268,-0.089 0.4553,-0.0473 0.2659,0.3008 0.2501,0.3141 -0.1257,0.4401 -0.1618,0.405 -0.1963,0.3648 -0.231,0.3174 -0.2724,0.2503 -0.9019,0.503 0.329,0.7194 0.2104,0.7625 z M 0,1.771654 a 1.771654,1.771654 0 0 0 0,-3.543308 1.771654,1.771654 0 0 0 0,3.543308"
         style="fill:none;stroke:#00ff00;stroke-width:0.14173228;stroke-miterlimit:4;stroke-dasharray:none;stroke-opacity:1"
         id="path4491" />
      <path
         inkscape:connector-curvature="0"
         d="M -1.484217,0 1.484217,0 M 0,-1.484217 0,1.484217"
         style="fill:none;stroke:#00ff00;stroke-width:0.14173228;stroke-miterlimit:4;stroke-dasharray:none;stroke-opacity:1"
         inkscape:label="Center cross"
         id="path4493" />
    </g>
    <g
       id="g4527"
       inkscape:transform-center-x="-0.06302677"
       inkscape:label="Gear9"
       transform="matrix(0.99411217,0.10835585,-0.10835585,0.99411217,83.308451,61.632761)"
       info="N:9; Pitch:4.45265107144; Pressure Angle: 20.0"
       style="stroke:#00ff00;stroke-width:0.14173228;stroke-miterlimit:4;stroke-dasharray:none;stroke-opacity:1"
       inkscape:transform-center-y="0.1036472">
      <path
         id="path4529"
         style="fill:none;stroke:#00ff00;stroke-width:0.14173228;stroke-miterlimit:4;stroke-dasharray:none;stroke-opacity:1"
         d="m 5.8861,-1.1286 0.3696,0.0168 0.3809,0.0946 0.3849,0.1533 0.3842,0.2062 0.3792,0.2563 L 7.7953,0 7.7849,0.4014 7.4057,0.6577 7.0215,0.8639 6.6366,1.0172 6.2557,1.1118 5.8861,1.1286 4.8719,0.9341 4.6615,1.6966 4.3325,2.416 5.2344,2.919 5.5068,3.1693 5.7378,3.4867 5.9341,3.8515 6.0959,4.2565 6.2216,4.6966 5.9715,5.0107 5.7056,5.3115 5.2503,5.2642 4.8235,5.1752 4.4301,5.0451 4.0774,4.8728 3.7836,4.6481 3.1316,3.8472 2.4803,4.296 1.7659,4.6357 2.1335,5.6007 2.1812,5.9676 2.1542,6.3591 2.0701,6.7648 1.9337,7.179 1.7471,7.597 1.3536,7.6768 0.9566,7.7364 0.6382,7.4074 0.3685,7.0649 0.1507,6.7124 -0.0087,6.3537 -0.0893,5.9926 -0.0739,4.9601 -0.8614,4.8853 -1.627,4.6862 -1.9657,5.6618 -2.165,5.9735 -2.4374,6.2561 -2.7626,6.5128 -3.1333,6.7424 -3.5449,6.9426 -3.8976,6.7509 -4.2401,6.5413 -4.2725,6.0847 -4.259,5.6489 -4.1992,5.2389 -4.0907,4.8616 -3.9204,4.5332 -3.2449,3.7521 -3.8001,3.1886 -4.2586,2.5441 -5.1451,3.0737 -5.4981,3.1844 -5.8885,3.2257 -6.3026,3.2134 -6.7342,3.151 -7.1782,3.0398 -7.3252,2.6661 -7.4527,2.2854 -7.1841,1.9148 -6.8936,1.5897 -6.5843,1.314 -6.2587,1.0948 -5.9171,0.9526 -4.8976,0.7885 -4.9606,0 l 0.063,-0.7885 -1.0195,-0.1641 -0.3416,-0.1422 -0.3256,-0.2192 -0.3093,-0.2757 -0.2905,-0.3251 -0.2686,-0.3706 0.1275,-0.3807 0.147,-0.3737 0.444,-0.1112 0.4316,-0.0624 0.4141,-0.0123 0.3904,0.0413 0.353,0.1107 0.8865,0.5296 0.4585,-0.6445 0.5552,-0.5635 -0.6755,-0.7811 -0.1703,-0.3284 -0.1085,-0.3773 -0.0598,-0.41 -0.0135,-0.4358 0.0324,-0.4566 0.3425,-0.2096 0.3527,-0.1917 0.4116,0.2002 0.3707,0.2296 0.3252,0.2567 0.2724,0.2826 0.1993,0.3117 0.3387,0.9756 0.7656,-0.1991 0.7875,-0.0748 -0.0154,-1.0325 0.0806,-0.3611 0.1594,-0.3587 0.2178,-0.3525 0.2697,-0.3425 0.3184,-0.329 0.397,0.0596 0.3935,0.0798 0.1866,0.418 0.1364,0.4142 0.0841,0.4057 0.027,0.3915 -0.0477,0.3669 -0.3676,0.965 0.7144,0.3397 0.6513,0.4488 0.652,-0.8009 0.2938,-0.2247 0.3527,-0.1723 0.3934,-0.1301 0.4268,-0.089 0.4553,-0.0473 0.2659,0.3008 0.2501,0.3141 -0.1257,0.4401 -0.1618,0.405 -0.1963,0.3648 -0.231,0.3174 -0.2724,0.2503 -0.9019,0.503 0.329,0.7194 0.2104,0.7625 z M 0,1.771654 a 1.771654,1.771654 0 0 0 0,-3.543308 1.771654,1.771654 0 0 0 0,3.543308"
         inkscape:connector-curvature="0" />
      <path
         id="path4531"
         inkscape:label="Center cross"
         style="fill:none;stroke:#00ff00;stroke-width:0.14173228;stroke-miterlimit:4;stroke-dasharray:none;stroke-opacity:1"
         d="M -1.484217,0 1.484217,0 M 0,-1.484217 0,1.484217"
         inkscape:connector-curvature="0" />
    </g>
    <g
       id="g4563"
       inkscape:label="Gear10"
       transform="translate(220.26444,111.52373)"
       info="N:10; Pitch:4.45265107144; Pressure Angle: 20.0">
      <path
         inkscape:connector-curvature="0"
         id="path4565"
         style="fill:none;stroke:#000000;stroke-width:0.60000002"
         d="m 6.561,-1.1396 0.3774,0.02 0.3876,0.096 0.3911,0.1526 0.3905,0.2034 0.3861,0.2513 L 8.5039,0 8.4937,0.4163 8.1076,0.6676 7.7171,0.871 7.326,1.0236 6.9384,1.1196 6.561,1.1396 5.5857,0.9702 5.3918,1.7519 5.0892,2.4982 5.9778,2.9345 6.2714,3.1725 6.5285,3.478 6.7552,3.8313 6.9516,4.2254 7.1163,4.6557 6.8798,4.9985 6.6269,5.3293 6.1667,5.3056 5.7313,5.2406 5.3252,5.1342 4.9552,4.9841 4.6381,4.7784 3.9486,4.0681 3.3323,4.5866 2.6488,5.0125 3.1113,5.8877 3.2089,6.2529 3.2373,6.6511 3.2131,7.0702 3.1403,7.5044 3.0207,7.9494 2.6279,8.0877 2.2288,8.2067 1.8704,7.9171 1.5563,7.6085 1.2904,7.2837 1.0793,6.9448 0.9436,6.592 0.8033,5.6121 0,5.6693 -0.8033,5.6121 -0.9436,6.592 -1.0793,6.9448 -1.2904,7.2837 -1.5563,7.6085 -1.8704,7.9171 -2.2288,8.2067 -2.6279,8.0877 -3.0207,7.9494 -3.1403,7.5044 -3.2131,7.0702 -3.2373,6.6511 -3.2089,6.2529 -3.1113,5.8877 -2.6488,5.0125 -3.3323,4.5866 -3.9486,4.0681 -4.6381,4.7784 -4.9552,4.9841 -5.3252,5.1342 -5.7313,5.2406 -6.1667,5.3056 -6.6269,5.3293 -6.8798,4.9985 -7.1163,4.6557 -6.9516,4.2254 -6.7552,3.8313 -6.5285,3.478 -6.2714,3.1725 -5.9778,2.9345 -5.0892,2.4982 -5.3918,1.7519 -5.5857,0.9702 -6.561,1.1396 -6.9384,1.1196 -7.326,1.0236 -7.7171,0.871 -8.1076,0.6676 -8.4937,0.4163 -8.5039,0 l 0.0102,-0.4163 0.3861,-0.2513 0.3905,-0.2034 0.3911,-0.1526 0.3876,-0.096 0.3774,-0.02 0.9753,0.1694 0.1939,-0.7817 0.3026,-0.7463 -0.8886,-0.4363 -0.2936,-0.238 -0.2571,-0.3055 -0.2267,-0.3533 -0.1964,-0.3941 -0.1647,-0.4303 0.2365,-0.3428 0.2529,-0.3308 0.4602,0.0237 0.4354,0.065 0.4061,0.1064 0.37,0.1501 0.3171,0.2057 0.6895,0.7103 0.6163,-0.5185 0.6835,-0.4259 -0.4625,-0.8752 -0.0976,-0.3652 -0.0284,-0.3982 0.0242,-0.4191 0.0728,-0.4342 0.1196,-0.445 0.3928,-0.1383 0.3991,-0.119 0.3584,0.2896 0.3141,0.3086 0.2659,0.3248 0.2111,0.3389 0.1357,0.3528 0.1403,0.9799 L 0,-5.6693 l 0.8033,0.0572 0.1403,-0.9799 0.1357,-0.3528 0.2111,-0.3389 0.2659,-0.3248 0.3141,-0.3086 0.3584,-0.2896 0.3991,0.119 0.3928,0.1383 0.1196,0.445 0.0728,0.4342 0.0242,0.4191 -0.0284,0.3982 -0.0976,0.3652 -0.4625,0.8752 0.6835,0.4259 0.6163,0.5185 0.6895,-0.7103 0.3171,-0.2057 0.37,-0.1501 0.4061,-0.1064 0.4354,-0.065 0.4602,-0.0237 0.2529,0.3308 0.2365,0.3428 -0.1647,0.4303 -0.1964,0.3941 -0.2267,0.3533 -0.2571,0.3055 -0.2936,0.238 -0.8886,0.4363 0.3026,0.7463 0.1939,0.7817 z M 0,3.543307 a 3.543307,3.543307 0 0 0 0,-7.086614 3.543307,3.543307 0 0 0 0,7.086614" />
      <path
         inkscape:connector-curvature="0"
         id="path4567"
         inkscape:label="Center cross"
         style="fill:none;stroke:#000000;stroke-width:0.15000001"
         d="M -1.484217,0 1.484217,0 M 0,-1.484217 0,1.484217" />
    </g>
  </g>
  <g
     inkscape:label="laser"
     id="layer3"
     inkscape:groupmode="layer">
    <g
       transform="translate(65.97796,12.32663)"
       id="g4942"
       style="stroke:#ff0000;stroke-width:0.70866144;stroke-miterlimit:4;stroke-dasharray:none;stroke-opacity:1">
      <path
         style="color:#000000;font-style:normal;font-variant:normal;font-weight:normal;font-stretch:normal;font-size:medium;line-height:normal;font-family:sans-serif;text-indent:0;text-align:start;text-decoration:none;text-decoration-line:none;text-decoration-style:solid;text-decoration-color:#000000;letter-spacing:normal;word-spacing:normal;text-transform:none;direction:ltr;block-progression:tb;writing-mode:lr-tb;baseline-shift:baseline;text-anchor:start;white-space:normal;clip-rule:nonzero;display:inline;overflow:visible;visibility:visible;opacity:1;isolation:auto;mix-blend-mode:normal;color-interpolation:sRGB;color-interpolation-filters:linearRGB;solid-color:#000000;solid-opacity:1;fill:none;fill-opacity:1;fill-rule:nonzero;stroke:#ff0000;stroke-width:0.17716534;stroke-linecap:butt;stroke-linejoin:miter;stroke-miterlimit:4;stroke-dasharray:none;stroke-dashoffset:0;stroke-opacity:1;color-rendering:auto;image-rendering:auto;shape-rendering:auto;text-rendering:auto;enable-background:accumulate"
         d="m -2.3085938,-8.703125 -0.4726562,0.1445312 -0.4667969,0.1601563 -0.2050781,0.671875 -0.099609,0.5097656 -0.039063,0.4980469 0.027344,0.4902344 0.1210937,0.46875 0.2617188,0.4960937 -0.4433594,0.2753907 -0.3984375,0.3339843 -0.3886719,-0.4003906 -0.4101562,-0.2597656 -0.4570313,-0.1777344 -0.4863281,-0.1171875 -0.515625,-0.0625 -0.7011719,-0.013672 -0.2988281,0.3945313 -0.2832031,0.40625 0.2304687,0.6640625 0.21875,0.46875 0.2597656,0.4277343 0.3105469,0.3808594 0.3730469,0.3085938 0.5039062,0.2460937 -0.1972656,0.4824219 -0.125,0.5058594 -0.5507812,-0.095703 -0.484375,0.029297 L -7.5,-1.3398438 l -0.4609375,0.1914063 -0.453125,0.25195312 -0.578125,0.40234376 L -9,0 -8.99219,0.49414062 -8.414065,0.89648438 -7.96094,1.1484375 -7.5,1.3398438 l 0.4746094,0.1269531 0.484375,0.029297 0.5507812,-0.095703 0.125,0.5058594 0.1972656,0.4824219 -0.5039062,0.2460937 -0.3730469,0.3085938 -0.3105469,0.3808594 -0.2597656,0.4277343 -0.21875,0.46875 -0.2304687,0.6640625 0.2832031,0.40625 0.2988281,0.3945313 0.7011719,-0.013672 0.515625,-0.0625 0.4863281,-0.1171875 0.4570313,-0.1777344 0.4101562,-0.2597656 0.3886719,-0.4003906 0.3984375,0.3339843 0.4433594,0.2753907 -0.2617188,0.4960937 -0.1210937,0.46875 -0.027344,0.4902344 0.039063,0.4980469 0.099609,0.5097656 0.2050781,0.671875 L -2.78125,8.5585938 -2.3085938,8.703125 -1.7480469,8.2792969 -1.3691406,7.9277344 -1.0429688,7.546875 -0.77734375,7.1347656 -0.59960938,6.6835938 -0.51953125,6.1289062 0,6.1660156 0.51953125,6.1289062 0.59960938,6.6835938 0.77734375,7.1347656 1.0429688,7.546875 1.3691406,7.9277344 1.7480469,8.2792969 2.3085938,8.703125 2.78125,8.5585938 3.2480469,8.3984375 3.453125,7.7265625 3.5527344,7.2167969 3.5917969,6.71875 3.5644531,6.2285156 3.4433594,5.7597656 3.1816406,5.2636719 3.625,4.9882812 4.0234375,4.6542969 4.4121094,5.0546875 4.8222656,5.3144531 5.2792969,5.4921875 5.765625,5.609375 6.28125,5.671875 6.9824219,5.6855469 7.28125,5.2910156 7.5644531,4.8847656 7.3339844,4.2207031 7.1152344,3.7519531 6.8554688,3.3242188 6.5449219,2.9433594 6.171875,2.6347656 5.6679688,2.3886719 5.8652344,1.90625 l 0.125,-0.5058594 0.5507812,0.095703 0.484375,-0.029297 L 7.5,1.3398438 7.9609375,1.1484375 8.4140625,0.89648438 8.9921875,0.49414062 9,0 8.9921875,-0.49414062 8.4140625,-0.89648438 7.9609375,-1.1484375 7.5,-1.3398438 7.0253906,-1.4667969 6.5410156,-1.4960938 6.5,-1.4882812 5.9902344,-1.4003906 5.8652344,-1.90625 5.6679688,-2.3886719 6.171875,-2.6347656 6.5449219,-2.9433594 6.8554688,-3.3242188 7.1152344,-3.7519531 7.3339844,-4.2207031 7.5644531,-4.8847656 7.28125,-5.2910156 6.9824219,-5.6855469 6.28125,-5.671875 5.765625,-5.609375 5.2792969,-5.4921875 4.8222656,-5.3144531 4.4121094,-5.0546875 4.0234375,-4.6542969 3.625,-4.9882812 3.1816406,-5.2636719 3.4433594,-5.7597656 3.5644531,-6.2285156 3.5917969,-6.71875 3.5527344,-7.2167969 3.453125,-7.7265625 3.2480469,-8.3984375 2.78125,-8.5585938 2.3085938,-8.703125 1.7480469,-8.2792969 1.3691406,-7.9277344 1.0429688,-7.546875 0.77734375,-7.1347656 0.59960938,-6.6835938 0.51953125,-6.1289062 0,-6.1660156 -0.51953125,-6.1289062 -0.59960938,-6.6835938 -0.77734375,-7.1347656 -1.0429688,-7.546875 -1.3691406,-7.9277344 -1.7480469,-8.2792969 -2.3085938,-8.703125 Z"
         id="path4940"
         inkscape:connector-curvature="0" />
      <path
         style="color:#000000;font-style:normal;font-variant:normal;font-weight:normal;font-stretch:normal;font-size:medium;line-height:normal;font-family:sans-serif;text-indent:0;text-align:start;text-decoration:none;text-decoration-line:none;text-decoration-style:solid;text-decoration-color:#000000;letter-spacing:normal;word-spacing:normal;text-transform:none;direction:ltr;block-progression:tb;writing-mode:lr-tb;baseline-shift:baseline;text-anchor:start;white-space:normal;clip-rule:nonzero;display:inline;overflow:visible;visibility:visible;opacity:1;isolation:auto;mix-blend-mode:normal;color-interpolation:sRGB;color-interpolation-filters:linearRGB;solid-color:#000000;solid-opacity:1;fill:none;fill-opacity:1;fill-rule:nonzero;stroke:#ff0000;stroke-width:0.17716534;stroke-linecap:butt;stroke-linejoin:miter;stroke-miterlimit:4;stroke-dasharray:none;stroke-dashoffset:0;stroke-opacity:1;color-rendering:auto;image-rendering:auto;shape-rendering:auto;text-rendering:auto;enable-background:accumulate"
         d="m 0,-3.1894531 c 1.0925191,0 1.8669664,0.3969677 2.3925781,0.9882812 0.5256118,0.5913135 0.796875,1.39408528 0.796875,2.2011719 0,0.80708662 -0.2712632,1.6098584 -0.796875,2.2011719 C 1.8669664,2.7924854 1.0925191,3.1894531 0,3.1894531 c -1.0925191,0 -1.8669664,-0.3969677 -2.3925781,-0.9882812 C -2.9181899,1.6098584 -3.1894531,0.80708662 -3.1894531,0 c 0,-0.80708662 0.2712632,-1.6098584 0.796875,-2.2011719 C -1.8669664,-2.7924854 -1.0925191,-3.1894531 0,-3.1894531 Z"
         id="path4887"
         inkscape:connector-curvature="0" />
    </g>
    <text
       sodipodi:linespacing="125%"
       id="text4946"
       y="26.65163"
       x="41.968109"
       style="font-style:normal;font-weight:normal;font-size:5px;line-height:125%;font-family:sans-serif;letter-spacing:0px;word-spacing:0px;fill:#0000ff;fill-opacity:1;stroke:none;stroke-width:1px;stroke-linecap:butt;stroke-linejoin:miter;stroke-miterlimit:4;stroke-dasharray:none;stroke-opacity:1"
       xml:space="preserve"><tspan
         y="26.65163"
         x="41.968109"
         id="tspan4948"
         sodipodi:role="line">M0.4 +10% 10Z +0.2mm</tspan></text>
    <g
       id="g4990"
       inkscape:label="Gear10"
       transform="translate(108.03055,13.478355)"
       info="N:10; Pitch:4.45265107144; Pressure Angle: 20.0"
       style="stroke:#ff0000;stroke-width:0.35433072;stroke-miterlimit:4;stroke-dasharray:none;stroke-opacity:1">
      <path
         style="color:#000000;font-style:normal;font-variant:normal;font-weight:normal;font-stretch:normal;font-size:medium;line-height:normal;font-family:sans-serif;text-indent:0;text-align:start;text-decoration:none;text-decoration-line:none;text-decoration-style:solid;text-decoration-color:#000000;letter-spacing:normal;word-spacing:normal;text-transform:none;direction:ltr;block-progression:tb;writing-mode:lr-tb;baseline-shift:baseline;text-anchor:start;white-space:normal;clip-rule:nonzero;display:inline;overflow:visible;visibility:visible;opacity:1;isolation:auto;mix-blend-mode:normal;color-interpolation:sRGB;color-interpolation-filters:linearRGB;solid-color:#000000;solid-opacity:1;fill:none;fill-opacity:1;fill-rule:nonzero;stroke:#ff0000;stroke-width:0.07086614;stroke-linecap:butt;stroke-linejoin:miter;stroke-miterlimit:4;stroke-dasharray:none;stroke-dashoffset:0;stroke-opacity:1;color-rendering:auto;image-rendering:auto;shape-rendering:auto;text-rendering:auto;enable-background:accumulate"
         d="m -2.34375,-8.5078125 -0.3828125,0.1171875 -0.3789063,0.1308594 -0.1757812,0.5761718 -0.095703,0.4902344 -0.037109,0.4765625 0.025391,0.4609375 0.1113281,0.4316406 0.328125,0.6230469 -0.5703124,0.3554688 -0.515625,0.4335937 -0.4902344,-0.5039062 -0.3769532,-0.2402344 -0.4296874,-0.1660156 -0.4648438,-0.1113282 -0.4960938,-0.060547 -0.6035156,-0.011719 -0.2421875,0.3203125 -0.2285156,0.328125 0.1972656,0.5703125 0.2109375,0.453125 0.2480469,0.40625 0.2929687,0.359375 0.34375,0.2832032 0.6308594,0.3105468 -0.2519531,0.6230469 -0.1621094,0.6542969 -0.6933593,-0.1210938 -0.4453126,0.027344 -0.4472656,0.1191406 -0.4414062,0.18359375 -0.4355469,0.2421875 -0.4960937,0.34570313 L -8.8222656,0 l 0.00586,0.40039062 0.4960937,0.34570313 0.4355469,0.2421875 0.4414062,0.18359375 0.4472656,0.1191406 0.4453126,0.027344 0.6933593,-0.1210938 0.1621094,0.6542969 0.2519531,0.6230469 -0.6308594,0.3105468 -0.34375,0.2832032 -0.2929687,0.359375 -0.2480469,0.40625 -0.2109375,0.453125 -0.1972656,0.5703125 0.2285156,0.328125 0.2421875,0.3203125 0.6035156,-0.011719 0.4960938,-0.060547 0.4648438,-0.1113282 0.4296874,-0.1660156 0.3769532,-0.2402344 0.4902344,-0.5039062 0.515625,0.4335937 0.5703124,0.3554688 -0.328125,0.6230469 -0.1113281,0.4316406 -0.025391,0.4609375 0.037109,0.4765625 0.095703,0.4902344 0.1757812,0.5761718 L -2.7265625,8.390625 -2.34375,8.5078125 -1.8613281,8.1445312 -1.4960938,7.8046875 -1.1855469,7.4414062 -0.93554688,7.0527344 -0.77148438,6.6367188 -0.671875,5.9414062 0,5.9882812 0.671875,5.9414062 0.77148438,6.6367188 0.93554688,7.0527344 1.1855469,7.4414062 1.4960938,7.8046875 1.8613281,8.1445312 2.34375,8.5078125 2.7265625,8.390625 3.1054688,8.2597656 3.28125,7.6835938 3.3769531,7.1933594 3.4140625,6.7167969 3.3886719,6.2558594 3.2773438,5.8242188 2.9492188,5.2011719 3.5195312,4.8457031 4.0351562,4.4121094 4.5253906,4.9160156 4.9023438,5.15625 5.3320312,5.3222656 5.796875,5.4335938 6.2929688,5.4941406 6.8964844,5.5058594 7.1386719,5.1855469 7.3671875,4.8574219 7.1699219,4.2871094 6.9589844,3.8339844 6.7109375,3.4277344 6.4179688,3.0683594 6.0742188,2.7851562 5.4433594,2.4746094 5.6953125,1.8515625 5.8574219,1.1972656 6.5507812,1.3183594 6.9960938,1.2910156 7.4433594,1.171875 7.8847656,0.98828125 8.3203125,0.74609375 8.8164062,0.40039062 8.8222656,0 8.8164062,-0.40039062 8.3203125,-0.74609375 7.8847656,-0.98828125 7.4433594,-1.171875 6.9960938,-1.2910156 6.5507812,-1.3183594 6.53125,-1.3144531 5.8574219,-1.1972656 5.6953125,-1.8515625 5.4433594,-2.4746094 l 0.6308594,-0.3105468 0.34375,-0.2832032 0.2929687,-0.359375 0.2480469,-0.40625 0.2109375,-0.453125 L 7.3671875,-4.8574219 7.1386719,-5.1855469 6.8964844,-5.5058594 6.2929688,-5.4941406 5.796875,-5.4335938 5.3320312,-5.3222656 4.9023438,-5.15625 4.5253906,-4.9160156 4.0351562,-4.4121094 3.5195312,-4.8457031 2.9492188,-5.2011719 3.2773438,-5.8242188 3.3886719,-6.2558594 3.4140625,-6.7167969 3.3769531,-7.1933594 3.28125,-7.6835938 3.1054688,-8.2597656 2.7265625,-8.390625 2.34375,-8.5078125 1.8613281,-8.1445312 1.4960938,-7.8046875 1.1855469,-7.4414062 0.93554688,-7.0527344 0.77148438,-6.6367188 0.671875,-5.9414062 0,-5.9882812 -0.671875,-5.9414062 -0.77148438,-6.6367188 -0.93554688,-7.0527344 -1.1855469,-7.4414062 -1.4960938,-7.8046875 -1.8613281,-8.1445312 -2.34375,-8.5078125 Z"
         id="path5045"
         inkscape:connector-curvature="0" />
      <path
         style="color:#000000;font-style:normal;font-variant:normal;font-weight:normal;font-stretch:normal;font-size:medium;line-height:normal;font-family:sans-serif;text-indent:0;text-align:start;text-decoration:none;text-decoration-line:none;text-decoration-style:solid;text-decoration-color:#000000;letter-spacing:normal;word-spacing:normal;text-transform:none;direction:ltr;block-progression:tb;writing-mode:lr-tb;baseline-shift:baseline;text-anchor:start;white-space:normal;clip-rule:nonzero;display:inline;overflow:visible;visibility:visible;opacity:1;isolation:auto;mix-blend-mode:normal;color-interpolation:sRGB;color-interpolation-filters:linearRGB;solid-color:#000000;solid-opacity:1;fill:none;fill-opacity:1;fill-rule:nonzero;stroke:#ff0000;stroke-width:0.07086614;stroke-linecap:butt;stroke-linejoin:miter;stroke-miterlimit:4;stroke-dasharray:none;stroke-dashoffset:0;stroke-opacity:1;color-rendering:auto;image-rendering:auto;shape-rendering:auto;text-rendering:auto;enable-background:accumulate"
         d="m 0,-3.3652344 c 1.1368105,0 1.9673093,0.4190333 2.5253906,1.046875 C 3.083472,-1.6905176 3.3652344,-0.84645669 3.3652344,0 c 0,0.84645669 -0.2817624,1.6905176 -0.8398438,2.3183594 C 1.9673093,2.9462011 1.1368105,3.3652344 0,3.3652344 c -1.1368105,0 -1.9673093,-0.4190333 -2.5253906,-1.046875 C -3.083472,1.6905176 -3.3652344,0.84645669 -3.3652344,0 c 0,-0.84645669 0.2817624,-1.6905176 0.8398438,-2.3183594 C -1.9673093,-2.9462011 -1.1368105,-3.3652344 0,-3.3652344 Z"
         id="path4992"
         inkscape:connector-curvature="0" />
    </g>
    <text
       xml:space="preserve"
       style="font-style:normal;font-weight:normal;font-size:5px;line-height:125%;font-family:sans-serif;letter-spacing:0px;word-spacing:0px;fill:#0000ff;fill-opacity:1;stroke:none;stroke-width:1px;stroke-linecap:butt;stroke-linejoin:miter;stroke-miterlimit:4;stroke-dasharray:none;stroke-opacity:1"
       x="81.789917"
       y="2.6212249"
       id="text5055"
       sodipodi:linespacing="125%"><tspan
         sodipodi:role="line"
         id="tspan5057"
         x="81.789917"
         y="2.6212249">M0.4 +10% 10Z +0.1mm</tspan></text>
    <circle
       r="0.88582677"
       cy="7.7786226"
       cx="67.601173"
       id="path5059"
       style="opacity:1;fill:none;fill-opacity:1;stroke:#00ff00;stroke-width:0.07086614;stroke-linecap:round;stroke-linejoin:round;stroke-miterlimit:4;stroke-dasharray:none;stroke-dashoffset:0;stroke-opacity:1" />
    <circle
       style="opacity:1;fill:none;fill-opacity:1;stroke:#00ff00;stroke-width:0.07086614;stroke-linecap:round;stroke-linejoin:round;stroke-miterlimit:4;stroke-dasharray:none;stroke-dashoffset:0;stroke-opacity:1"
       id="circle5061"
       cx="69.987656"
       cy="9.3475161"
       r="0.88582677" />
    <circle
       r="0.88582677"
       cy="8.7225161"
       cx="109.73766"
       id="circle5063"
       style="opacity:1;fill:none;fill-opacity:1;stroke:#00ff00;stroke-width:0.07086614;stroke-linecap:round;stroke-linejoin:round;stroke-miterlimit:4;stroke-dasharray:none;stroke-dashoffset:0;stroke-opacity:1" />
    <g
       transform="translate(52.125,10.25)"
       id="g5069">
      <path
         style="opacity:1;fill:none;fill-opacity:1;stroke:#00ff00;stroke-width:0.07086614;stroke-linecap:round;stroke-linejoin:round;stroke-miterlimit:4;stroke-dasharray:none;stroke-dashoffset:0;stroke-opacity:1"
         d="m 10.375,6.9871854 3.75,0.125"
         id="path5065"
         inkscape:connector-curvature="0" />
      <path
         style="opacity:1;fill:none;fill-opacity:1;stroke:#00ff00;stroke-width:0.07086614;stroke-linecap:round;stroke-linejoin:round;stroke-miterlimit:4;stroke-dasharray:none;stroke-dashoffset:0;stroke-opacity:1"
         d="m 12.375,5.4871854 -0.25,2.875"
         id="path5067"
         inkscape:connector-curvature="0" />
    </g>
    <g
       id="g5073"
       transform="translate(94.125,11.5)">
      <path
         inkscape:connector-curvature="0"
         id="path5075"
         d="m 10.375,6.9871854 3.75,0.125"
         style="opacity:1;fill:none;fill-opacity:1;stroke:#00ff00;stroke-width:0.07086614;stroke-linecap:round;stroke-linejoin:round;stroke-miterlimit:4;stroke-dasharray:none;stroke-dashoffset:0;stroke-opacity:1" />
      <path
         inkscape:connector-curvature="0"
         id="path5077"
         d="m 12.375,5.4871854 -0.25,2.875"
         style="opacity:1;fill:none;fill-opacity:1;stroke:#00ff00;stroke-width:0.07086614;stroke-linecap:round;stroke-linejoin:round;stroke-miterlimit:4;stroke-dasharray:none;stroke-dashoffset:0;stroke-opacity:1" />
    </g>
    <g
       id="g5234">
      <g
         id="g5216">
        <path
           style="color:#000000;font-style:normal;font-variant:normal;font-weight:normal;font-stretch:normal;font-size:medium;line-height:normal;font-family:sans-serif;text-indent:0;text-align:start;text-decoration:none;text-decoration-line:none;text-decoration-style:solid;text-decoration-color:#000000;letter-spacing:normal;word-spacing:normal;text-transform:none;direction:ltr;block-progression:tb;writing-mode:lr-tb;baseline-shift:baseline;text-anchor:start;white-space:normal;clip-rule:nonzero;display:inline;overflow:visible;visibility:visible;opacity:1;isolation:auto;mix-blend-mode:normal;color-interpolation:sRGB;color-interpolation-filters:linearRGB;solid-color:#000000;solid-opacity:1;fill:none;fill-opacity:1;fill-rule:nonzero;stroke:#ff0000;stroke-width:0.10629921;stroke-linecap:butt;stroke-linejoin:miter;stroke-miterlimit:4;stroke-dasharray:none;stroke-dashoffset:0;stroke-opacity:1;color-rendering:auto;image-rendering:auto;shape-rendering:auto;text-rendering:auto;enable-background:accumulate"
           d="M 9.765625,2.2949219 9.1796875,2.46875 8.6015625,2.671875 8.4296875,3.3144531 8.3515625,3.7851562 8.3242188,4.2460938 8.3574219,4.7011719 8.4726562,5.1367188 8.8007812,5.7558594 8.375,6.0195312 7.9921875,6.3417969 7.5039062,5.8398438 7.125,5.59375 6.703125,5.4238281 6.2558594,5.3066406 5.7851562,5.2363281 5.1210938,5.2011719 4.75,5.6875 4.4023438,6.1914062 4.640625,6.8125 4.8535156,7.2382812 5.1015625,7.6269531 5.3964844,7.9765625 5.7460938,8.2597656 6.375,8.5683594 6.1875,9.0332031 6.0664062,9.5175781 5.3769531,9.3984375 4.9257812,9.421875 4.4824219,9.5332031 4.0527344,9.6992188 3.6308594,9.9199219 3.0722656,10.283203 l -0.013672,0.611328 0.013672,0.611328 0.5585938,0.363282 0.421875,0.21875 0.4296875,0.167968 0.4433593,0.109375 0.4511719,0.02539 L 6.0664062,12.269531 6.1875,12.755859 6.375,13.220703 5.7460938,13.529297 5.3964844,13.8125 5.1015625,14.162109 4.8535156,14.550781 4.640625,14.976562 4.4023438,15.597656 4.75,16.101562 5.1210938,16.587891 5.7851562,16.552734 6.2558594,16.482422 6.703125,16.365234 7.125,16.193359 7.5039062,15.947266 7.9921875,15.445312 8.375,15.767578 l 0.4257812,0.265625 -0.328125,0.619141 -0.1152343,0.435547 -0.033203,0.455078 0.027344,0.460937 0.078125,0.470703 0.171875,0.640625 0.578125,0.203125 0.5859375,0.175782 0.5156246,-0.417969 0.341797,-0.333984 0.291015,-0.357422 0.242188,-0.386719 0.162109,-0.421875 0.09961,-0.69336 0.498047,0.03516 0.5,-0.03516 0.09961,0.69336 0.162109,0.421875 0.240235,0.386719 0.292969,0.357422 0.339843,0.333984 0.517578,0.417969 0.585938,-0.175782 0.576172,-0.203125 0.173828,-0.640625 0.07813,-0.470703 0.02734,-0.460937 -0.0332,-0.455078 -0.117187,-0.435547 -0.326172,-0.619141 0.423828,-0.265625 0.382813,-0.322266 0.488281,0.501954 0.378906,0.246093 0.421875,0.171875 0.447266,0.117188 0.472656,0.07031 0.66211,0.03516 0.373046,-0.486329 0.345704,-0.503906 -0.236329,-0.621094 -0.21289,-0.425781 -0.25,-0.388672 -0.292969,-0.349609 -0.351562,-0.283203 -0.626954,-0.308594 0.1875,-0.464844 0.121094,-0.486328 0.689453,0.121094 0.451172,-0.02539 0.441406,-0.109375 0.431641,-0.167968 0.421875,-0.21875 0.556641,-0.363282 0.01563,-0.611328 -0.01563,-0.611328 L 20.203125,9.9199219 19.78125,9.6992188 19.349609,9.5332031 18.908203,9.421875 18.457031,9.3984375 18.416016,9.40625 17.767578,9.5175781 17.646484,9.0332031 17.458984,8.5683594 18.085938,8.2597656 18.4375,7.9765625 18.730469,7.6269531 18.980469,7.2382812 19.193359,6.8125 19.429688,6.1914062 19.083984,5.6875 18.710938,5.2011719 18.048828,5.2363281 17.576172,5.3066406 17.128906,5.4238281 16.707031,5.59375 16.328125,5.8398438 15.839844,6.3417969 15.457031,6.0195312 15.033203,5.7558594 15.359375,5.1367188 15.476562,4.7011719 15.509766,4.2460938 15.482422,3.7851562 15.404297,3.3144531 15.230469,2.671875 14.654297,2.46875 14.068359,2.2949219 13.550781,2.7128906 13.210938,3.046875 12.917969,3.4042969 12.677734,3.7910156 12.515625,4.2128906 12.416015,4.90625 11.916015,4.869141 11.417969,4.90625 11.318359,4.2128906 11.15625,3.7910156 10.914062,3.4042969 10.623047,3.046875 10.28125,2.7128906 9.765625,2.2949219 Z"
           id="path5214" />
        <path
           style="color:#000000;font-style:normal;font-variant:normal;font-weight:normal;font-stretch:normal;font-size:medium;line-height:normal;font-family:sans-serif;text-indent:0;text-align:start;text-decoration:none;text-decoration-line:none;text-decoration-style:solid;text-decoration-color:#000000;letter-spacing:normal;word-spacing:normal;text-transform:none;direction:ltr;block-progression:tb;writing-mode:lr-tb;baseline-shift:baseline;text-anchor:start;white-space:normal;clip-rule:nonzero;display:inline;overflow:visible;visibility:visible;opacity:1;isolation:auto;mix-blend-mode:normal;color-interpolation:sRGB;color-interpolation-filters:linearRGB;solid-color:#000000;solid-opacity:1;fill:none;fill-opacity:1;fill-rule:nonzero;stroke:#ff0000;stroke-width:0.10629921;stroke-linecap:butt;stroke-linejoin:miter;stroke-miterlimit:4;stroke-dasharray:none;stroke-dashoffset:0;stroke-opacity:1;color-rendering:auto;image-rendering:auto;shape-rendering:auto;text-rendering:auto;enable-background:accumulate"
           d="m 11.916016,7.7050781 c 1.092519,0 1.866966,0.3969678 2.392578,0.9882813 0.525612,0.5913135 0.796875,1.3940856 0.796875,2.2011716 0,0.807087 -0.271263,1.609859 -0.796875,2.201172 -0.525612,0.591314 -1.300059,0.988281 -2.392578,0.988281 -1.092519,0 -1.866967,-0.396967 -2.3925785,-0.988281 -0.5256118,-0.591313 -0.7949219,-1.394085 -0.7949219,-2.201172 0,-0.807086 0.2693101,-1.6098581 0.7949219,-2.2011716 C 10.049049,8.1020459 10.823497,7.7050781 11.916016,7.7050781 Z"
           id="path5090" />
      </g>
      <circle
         r="0.88582677"
         cy="6.0833545"
         cx="10.368918"
         id="circle5220"
         style="opacity:1;fill:none;fill-opacity:1;stroke:#00ff00;stroke-width:0.07086614;stroke-linecap:round;stroke-linejoin:round;stroke-miterlimit:4;stroke-dasharray:none;stroke-dashoffset:0;stroke-opacity:1" />
      <circle
         style="opacity:1;fill:none;fill-opacity:1;stroke:#00ff00;stroke-width:0.07086614;stroke-linecap:round;stroke-linejoin:round;stroke-miterlimit:4;stroke-dasharray:none;stroke-dashoffset:0;stroke-opacity:1"
         id="circle5222"
         cx="13.623834"
         cy="6.218976"
         r="0.88582677" />
    </g>
    <g
       id="g5241">
      <path
         id="path5232"
         d="m 34.474609,2.6679688 -0.492187,0.1464843 -0.484375,0.171875 -0.146485,0.5429688 -0.07617,0.4511719 -0.02539,0.4414062 0.03125,0.4257812 0.107422,0.4003907 0.394531,0.7480469 -0.554687,0.34375 -0.5,0.421875 L 32.140625,6.1542969 31.792969,5.9296875 31.396484,5.7675781 30.96875,5.65625 30.515625,5.589844 29.955078,5.560547 l -0.3125,0.4082031 -0.292969,0.421875 0.201172,0.5273438 0.205078,0.4101562 0.238282,0.3710938 0.27539,0.3261718 0.322266,0.2617188 0.757812,0.3710937 L 31.105469,9.263672 30.947266,9.8984375 30.115234,9.7539062 29.701172,9.7753906 29.285156,9.8789062 28.875,10.039062 28.46875,10.25 l -0.472656,0.306641 -0.01172,0.513671 0.01172,0.513672 0.472656,0.308594 0.40625,0.210938 0.410156,0.160156 0.416016,0.103516 0.414062,0.02148 0.832032,-0.144531 0.158203,0.632812 0.24414,0.605469 -0.757812,0.373047 -0.322266,0.261719 -0.27539,0.326171 -0.238282,0.371094 -0.205078,0.410156 -0.201172,0.525391 0.292969,0.423828 0.3125,0.408203 0.560547,-0.0293 0.453125,-0.06641 0.427734,-0.113281 0.396485,-0.160156 0.347656,-0.226563 0.587891,-0.605469 0.5,0.419922 0.554687,0.345703 -0.394531,0.748047 -0.107422,0.400391 -0.03125,0.425781 0.02539,0.439453 0.07617,0.453125 0.146485,0.542969 0.484375,0.171875 0.492187,0.146484 0.4375,-0.353515 0.328125,-0.322266 0.279297,-0.339844 0.226563,-0.363281 0.148437,-0.388672 0.119141,-0.835937 0.652344,0.04687 0.65039,-0.04687 0.119141,0.835937 0.150391,0.388672 0.224609,0.363281 0.279297,0.339844 0.328125,0.322266 0.4375,0.353515 0.492187,-0.146484 0.484375,-0.171875 0.146485,-0.542969 0.07617,-0.453125 0.02539,-0.439453 -0.03125,-0.425781 -0.105469,-0.400391 -0.396484,-0.748047 0.554687,-0.345703 0.5,-0.419922 0.587891,0.605469 0.349609,0.226563 0.394532,0.160156 0.427734,0.113281 0.453125,0.06641 0.5625,0.0293 0.310547,-0.408203 0.292969,-0.423828 -0.201172,-0.525391 -0.205078,-0.410156 -0.238281,-0.371094 -0.275391,-0.326171 -0.322266,-0.261719 -0.757812,-0.373047 0.246093,-0.605469 0.15625,-0.632812 0.832032,0.144531 0.414062,-0.02148 0.416016,-0.103516 0.410156,-0.160156 0.408203,-0.210938 L 45.33398,11.583984 45.3457,11.070312 45.33398,10.556641 44.863281,10.25 44.455078,10.039062 44.044922,9.8789062 43.628906,9.7753906 l -0.414062,-0.021484 -0.01953,0.00391 -0.8125,0.140625 L 42.226562,9.2636719 41.980469,8.6582031 42.738281,8.2871094 43.060547,8.0253906 43.335938,7.6992188 43.574219,7.328125 43.779297,6.9179688 43.980469,6.390625 43.6875,5.96875 43.376953,5.5605469 l -0.5625,0.029297 -0.453125,0.066406 -0.427734,0.1113281 -0.394532,0.1621094 -0.349609,0.2246094 -0.587891,0.6074219 -0.5,-0.421875 -0.554687,-0.34375 L 39.943359,5.2480469 40.048828,4.8476562 40.080078,4.421875 40.054688,3.9804688 39.978516,3.5292969 39.832031,2.9863281 39.347656,2.8144531 38.855469,2.6679688 38.417969,3.0214844 38.089844,3.34375 37.810547,3.6835938 37.585938,4.046875 37.435547,4.4335938 37.316406,5.2714844 36.666016,5.2246094 36.013672,5.2714844 35.894531,4.4335938 35.746094,4.046875 35.519531,3.6835938 35.240234,3.34375 34.912109,3.0214844 34.474609,2.6679688 Z"
         style="color:#000000;font-style:normal;font-variant:normal;font-weight:normal;font-stretch:normal;font-size:medium;line-height:normal;font-family:sans-serif;text-indent:0;text-align:start;text-decoration:none;text-decoration-line:none;text-decoration-style:solid;text-decoration-color:#000000;letter-spacing:normal;word-spacing:normal;text-transform:none;direction:ltr;block-progression:tb;writing-mode:lr-tb;baseline-shift:baseline;text-anchor:start;white-space:normal;clip-rule:nonzero;display:inline;overflow:visible;visibility:visible;opacity:1;isolation:auto;mix-blend-mode:normal;color-interpolation:sRGB;color-interpolation-filters:linearRGB;solid-color:#000000;solid-opacity:1;fill:none;fill-opacity:1;fill-rule:nonzero;stroke:#ff0000;stroke-width:0.10629921;stroke-linecap:butt;stroke-linejoin:miter;stroke-miterlimit:4;stroke-dasharray:none;stroke-dashoffset:0;stroke-opacity:1;color-rendering:auto;image-rendering:auto;shape-rendering:auto;text-rendering:auto;enable-background:accumulate" />
      <path
         id="path5198"
         d="m 36.666017,7.7050781 c 1.13681,0 1.965356,0.4190333 2.523437,1.046875 0.558081,0.6278418 0.841797,1.4719029 0.841797,2.3183589 0,0.846457 -0.283716,1.690518 -0.841797,2.31836 -0.558081,0.627842 -1.386627,1.048828 -2.523437,1.048828 -1.136811,0 -1.96731,-0.420986 -2.525391,-1.048828 -0.558081,-0.627842 -0.841797,-1.471903 -0.841797,-2.31836 0,-0.846456 0.283716,-1.6905171 0.841797,-2.3183589 0.558081,-0.6278417 1.38858,-1.046875 2.525391,-1.046875 z"
         style="color:#000000;font-style:normal;font-variant:normal;font-weight:normal;font-stretch:normal;font-size:medium;line-height:normal;font-family:sans-serif;text-indent:0;text-align:start;text-decoration:none;text-decoration-line:none;text-decoration-style:solid;text-decoration-color:#000000;letter-spacing:normal;word-spacing:normal;text-transform:none;direction:ltr;block-progression:tb;writing-mode:lr-tb;baseline-shift:baseline;text-anchor:start;white-space:normal;clip-rule:nonzero;display:inline;overflow:visible;visibility:visible;opacity:1;isolation:auto;mix-blend-mode:normal;color-interpolation:sRGB;color-interpolation-filters:linearRGB;solid-color:#000000;solid-opacity:1;fill:none;fill-opacity:1;fill-rule:nonzero;stroke:#ff0000;stroke-width:0.10629921;stroke-linecap:butt;stroke-linejoin:miter;stroke-miterlimit:4;stroke-dasharray:none;stroke-dashoffset:0;stroke-opacity:1;color-rendering:auto;image-rendering:auto;shape-rendering:auto;text-rendering:auto;enable-background:accumulate" />
      <circle
         r="0.88582677"
         cy="6.4902191"
         cx="35.119835"
         id="circle5224"
         style="opacity:1;fill:none;fill-opacity:1;stroke:#00ff00;stroke-width:0.07086614;stroke-linecap:round;stroke-linejoin:round;stroke-miterlimit:4;stroke-dasharray:none;stroke-dashoffset:0;stroke-opacity:1" />
    </g>
  </g>
</svg>
